<?xml version="1.0" encoding="UTF-8" standalone="no"?>
<!DOCTYPE svg PUBLIC "-//W3C//DTD SVG 1.1//EN"
 "http://www.w3.org/Graphics/SVG/1.1/DTD/svg11.dtd">
<!-- Generated by graphviz version 2.44.1 (0)
 -->
<!-- Title: wecker Pages: 1 -->
<svg width="442pt" height="404pt"
 viewBox="0.00 0.00 441.77 404.00" xmlns="http://www.w3.org/2000/svg" xmlns:xlink="http://www.w3.org/1999/xlink">
<g id="graph0" class="graph" transform="scale(1 1) rotate(0) translate(4 400)">
<title>wecker</title>
<polygon fill="white" stroke="transparent" points="-4,4 -4,-400 437.77,-400 437.77,4 -4,4"/>
<!-- INIT -->
<g id="node1" class="node">
<title>INIT</title>
<ellipse fill="none" stroke="black" cx="214.34" cy="-378" rx="27" ry="18"/>
<text text-anchor="middle" x="214.34" y="-374.3" font-family="Times,serif" font-size="14.00">*</text>
</g>
<!-- LIGHT -->
<g id="node2" class="node">
<title>LIGHT</title>
<ellipse fill="none" stroke="black" cx="214.34" cy="-306" rx="40.89" ry="18"/>
<text text-anchor="middle" x="214.34" y="-302.3" font-family="Times,serif" font-size="14.00">LIGHT</text>
</g>
<!-- INIT&#45;&gt;LIGHT -->
<g id="edge1" class="edge">
<title>INIT&#45;&gt;LIGHT</title>
<path fill="none" stroke="black" d="M214.34,-359.7C214.34,-351.98 214.34,-342.71 214.34,-334.11"/>
<polygon fill="black" stroke="black" points="217.84,-334.1 214.34,-324.1 210.84,-334.1 217.84,-334.1"/>
</g>
<!-- SET_LIGHT -->
<g id="node3" class="node">
<title>SET_LIGHT</title>
<ellipse fill="none" stroke="black" cx="64.34" cy="-234" rx="64.19" ry="18"/>
<text text-anchor="middle" x="64.34" y="-230.3" font-family="Times,serif" font-size="14.00">SET_LIGHT</text>
</g>
<!-- LIGHT&#45;&gt;SET_LIGHT -->
<g id="edge2" class="edge">
<title>LIGHT&#45;&gt;SET_LIGHT</title>
<path fill="none" stroke="black" d="M184.41,-293.44C160.25,-282.96 126.35,-267.29 100.66,-254.82"/>
<polygon fill="black" stroke="black" points="102.12,-251.64 91.6,-250.38 99.05,-257.92 102.12,-251.64"/>
</g>
<!-- SET_CLOCK -->
<g id="node4" class="node">
<title>SET_CLOCK</title>
<ellipse fill="none" stroke="black" cx="214.34" cy="-234" rx="67.69" ry="18"/>
<text text-anchor="middle" x="214.34" y="-230.3" font-family="Times,serif" font-size="14.00">SET_CLOCK</text>
</g>
<!-- LIGHT&#45;&gt;SET_CLOCK -->
<g id="edge3" class="edge">
<title>LIGHT&#45;&gt;SET_CLOCK</title>
<path fill="none" stroke="black" d="M208.47,-288.05C207.65,-280.35 207.41,-271.03 207.74,-262.36"/>
<polygon fill="black" stroke="black" points="211.24,-262.49 208.43,-252.28 204.25,-262.01 211.24,-262.49"/>
</g>
<!-- ALARM -->
<g id="node5" class="node">
<title>ALARM</title>
<ellipse fill="none" stroke="black" cx="345.34" cy="-234" rx="45.49" ry="18"/>
<text text-anchor="middle" x="345.34" y="-230.3" font-family="Times,serif" font-size="14.00">ALARM</text>
</g>
<!-- LIGHT&#45;&gt;ALARM -->
<g id="edge4" class="edge">
<title>LIGHT&#45;&gt;ALARM</title>
<path fill="none" stroke="black" d="M239.29,-291.67C259.39,-280.93 287.88,-265.71 310.27,-253.74"/>
<polygon fill="black" stroke="black" points="311.97,-256.8 319.14,-249 308.67,-250.63 311.97,-256.8"/>
</g>
<!-- SET_LIGHT&#45;&gt;LIGHT -->
<g id="edge15" class="edge">
<title>SET_LIGHT&#45;&gt;LIGHT</title>
<path fill="none" stroke="black" d="M100.12,-249.11C124.84,-259.97 157.36,-275.08 181.44,-286.85"/>
<polygon fill="black" stroke="black" points="180.03,-290.05 190.55,-291.34 183.13,-283.77 180.03,-290.05"/>
</g>
<!-- SET_CLOCK&#45;&gt;LIGHT -->
<g id="edge14" class="edge">
<title>SET_CLOCK&#45;&gt;LIGHT</title>
<path fill="none" stroke="black" d="M220.26,-252.28C221.06,-260.03 221.28,-269.36 220.93,-278.01"/>
<polygon fill="black" stroke="black" points="217.44,-277.83 220.22,-288.05 224.42,-278.33 217.44,-277.83"/>
</g>
<!-- SET_ALARM -->
<g id="node6" class="node">
<title>SET_ALARM</title>
<ellipse fill="none" stroke="black" cx="222.34" cy="-162" rx="68.79" ry="18"/>
<text text-anchor="middle" x="222.34" y="-158.3" font-family="Times,serif" font-size="14.00">SET_ALARM</text>
</g>
<!-- ALARM&#45;&gt;SET_ALARM -->
<g id="edge5" class="edge">
<title>ALARM&#45;&gt;SET_ALARM</title>
<path fill="none" stroke="black" d="M316.8,-219.83C297.83,-209.85 273.07,-195.92 253.59,-184.35"/>
<polygon fill="black" stroke="black" points="255.15,-181.21 244.78,-179.06 251.55,-187.21 255.15,-181.21"/>
</g>
<!-- RING -->
<g id="node7" class="node">
<title>RING</title>
<ellipse fill="none" stroke="black" cx="345.34" cy="-162" rx="36.29" ry="18"/>
<text text-anchor="middle" x="345.34" y="-158.3" font-family="Times,serif" font-size="14.00">RING</text>
</g>
<!-- ALARM&#45;&gt;RING -->
<g id="edge6" class="edge">
<title>ALARM&#45;&gt;RING</title>
<path fill="none" stroke="black" d="M345.34,-215.7C345.34,-207.98 345.34,-198.71 345.34,-190.11"/>
<polygon fill="black" stroke="black" points="348.84,-190.1 345.34,-180.1 341.84,-190.1 348.84,-190.1"/>
</g>
<!-- OFF -->
<g id="node9" class="node">
<title>OFF</title>
<ellipse fill="none" stroke="black" cx="390.34" cy="-18" rx="30.59" ry="18"/>
<text text-anchor="middle" x="390.34" y="-14.3" font-family="Times,serif" font-size="14.00">OFF</text>
</g>
<!-- ALARM&#45;&gt;OFF -->
<g id="edge11" class="edge">
<title>ALARM&#45;&gt;OFF</title>
<path fill="none" stroke="black" d="M363.85,-217.38C373.77,-207.75 385.02,-194.5 390.34,-180 406.71,-135.45 401.36,-79.16 395.91,-46.31"/>
<polygon fill="black" stroke="black" points="399.29,-45.35 394.09,-36.12 392.4,-46.58 399.29,-45.35"/>
</g>
<!-- SET_ALARM&#45;&gt;ALARM -->
<g id="edge13" class="edge">
<title>SET_ALARM&#45;&gt;ALARM</title>
<path fill="none" stroke="black" d="M254.66,-178.16C273.61,-188.24 297.26,-201.61 315.73,-212.62"/>
<polygon fill="black" stroke="black" points="313.96,-215.64 324.33,-217.81 317.58,-209.65 313.96,-215.64"/>
</g>
<!-- SNOOZE -->
<g id="node8" class="node">
<title>SNOOZE</title>
<ellipse fill="none" stroke="black" cx="290.34" cy="-90" rx="52.79" ry="18"/>
<text text-anchor="middle" x="290.34" y="-86.3" font-family="Times,serif" font-size="14.00">SNOOZE</text>
</g>
<!-- RING&#45;&gt;SNOOZE -->
<g id="edge7" class="edge">
<title>RING&#45;&gt;SNOOZE</title>
<path fill="none" stroke="black" d="M328.04,-146.15C320.18,-137.53 311.16,-126.42 303.81,-116.43"/>
<polygon fill="black" stroke="black" points="306.49,-114.17 297.84,-108.04 300.78,-118.22 306.49,-114.17"/>
</g>
<!-- RING&#45;&gt;OFF -->
<g id="edge8" class="edge">
<title>RING&#45;&gt;OFF</title>
<path fill="none" stroke="black" d="M350.68,-144.15C358.4,-119.81 372.73,-74.57 381.89,-45.67"/>
<polygon fill="black" stroke="black" points="385.33,-46.42 385.01,-35.82 378.65,-44.3 385.33,-46.42"/>
</g>
<!-- SNOOZE&#45;&gt;RING -->
<g id="edge9" class="edge">
<title>SNOOZE&#45;&gt;RING</title>
<path fill="none" stroke="black" d="M308.97,-107.31C316.55,-115.76 325.04,-126.26 332.01,-135.73"/>
<polygon fill="black" stroke="black" points="329.27,-137.92 337.91,-144.05 334.98,-133.87 329.27,-137.92"/>
</g>
<!-- SNOOZE&#45;&gt;OFF -->
<g id="edge10" class="edge">
<title>SNOOZE&#45;&gt;OFF</title>
<path fill="none" stroke="black" d="M312.54,-73.46C327.39,-63.07 347.05,-49.3 362.89,-38.22"/>
<polygon fill="black" stroke="black" points="365.06,-40.97 371.24,-32.37 361.04,-35.24 365.06,-40.97"/>
</g>
<!-- OFF&#45;&gt;LIGHT -->
<g id="edge12" class="edge">
<title>OFF&#45;&gt;LIGHT</title>
<path fill="none" stroke="black" d="M400.45,-35.5C406.05,-45.63 412.45,-59.09 415.34,-72 432.9,-150.37 451.99,-191.35 399.34,-252 366.26,-290.11 307.82,-301.7 265.45,-304.8"/>
<polygon fill="black" stroke="black" points="265.1,-301.31 255.32,-305.4 265.51,-308.3 265.1,-301.31"/>
</g>
</g>
</svg>
